<mxfile host="Electron" agent="Mozilla/5.0 (X11; Linux x86_64) AppleWebKit/537.36 (KHTML, like Gecko) draw.io/26.2.2 Chrome/134.0.6998.178 Electron/35.1.2 Safari/537.36" version="26.2.2">
  <diagram name="Page-1" id="-gHhtynBYUUBPTqvhVFJ">
    <mxGraphModel dx="874" dy="1583" grid="1" gridSize="10" guides="1" tooltips="1" connect="1" arrows="1" fold="1" page="1" pageScale="1" pageWidth="850" pageHeight="1100" math="0" shadow="0">
      <root>
        <mxCell id="0" />
        <mxCell id="1" parent="0" />
        <mxCell id="2hq3gFtp2GpSwsrjaMzX-19" value="" style="edgeStyle=orthogonalEdgeStyle;rounded=0;orthogonalLoop=1;jettySize=auto;html=1;exitX=1;exitY=0.5;exitDx=0;exitDy=0;" parent="1" source="I81Et_k_NmvjJubmhsC7-2" target="2hq3gFtp2GpSwsrjaMzX-2" edge="1">
          <mxGeometry relative="1" as="geometry" />
        </mxCell>
        <mxCell id="I81Et_k_NmvjJubmhsC7-3" value="" style="edgeStyle=orthogonalEdgeStyle;rounded=0;orthogonalLoop=1;jettySize=auto;html=1;" edge="1" parent="1" source="2hq3gFtp2GpSwsrjaMzX-1" target="I81Et_k_NmvjJubmhsC7-2">
          <mxGeometry relative="1" as="geometry" />
        </mxCell>
        <mxCell id="I81Et_k_NmvjJubmhsC7-4" value="using" style="edgeLabel;html=1;align=center;verticalAlign=middle;resizable=0;points=[];" vertex="1" connectable="0" parent="I81Et_k_NmvjJubmhsC7-3">
          <mxGeometry x="0.025" y="2" relative="1" as="geometry">
            <mxPoint as="offset" />
          </mxGeometry>
        </mxCell>
        <mxCell id="2hq3gFtp2GpSwsrjaMzX-1" value="Cashier" style="shape=umlActor;verticalLabelPosition=bottom;verticalAlign=top;html=1;outlineConnect=0;" parent="1" vertex="1">
          <mxGeometry x="100" y="70" width="30" height="60" as="geometry" />
        </mxCell>
        <mxCell id="2hq3gFtp2GpSwsrjaMzX-16" value="" style="edgeStyle=orthogonalEdgeStyle;rounded=0;orthogonalLoop=1;jettySize=auto;html=1;" parent="1" source="2hq3gFtp2GpSwsrjaMzX-2" target="2hq3gFtp2GpSwsrjaMzX-15" edge="1">
          <mxGeometry relative="1" as="geometry" />
        </mxCell>
        <mxCell id="2hq3gFtp2GpSwsrjaMzX-2" value="scan&lt;div&gt;coupon&lt;/div&gt;" style="rounded=1;whiteSpace=wrap;html=1;verticalAlign=top;" parent="1" vertex="1">
          <mxGeometry x="165" y="70" width="120" height="60" as="geometry" />
        </mxCell>
        <mxCell id="I81Et_k_NmvjJubmhsC7-6" value="" style="edgeStyle=orthogonalEdgeStyle;rounded=0;orthogonalLoop=1;jettySize=auto;html=1;" edge="1" parent="1" source="2hq3gFtp2GpSwsrjaMzX-8" target="I81Et_k_NmvjJubmhsC7-5">
          <mxGeometry relative="1" as="geometry" />
        </mxCell>
        <mxCell id="I81Et_k_NmvjJubmhsC7-8" value="send request" style="edgeLabel;html=1;align=center;verticalAlign=middle;resizable=0;points=[];" vertex="1" connectable="0" parent="I81Et_k_NmvjJubmhsC7-6">
          <mxGeometry x="-0.225" y="1" relative="1" as="geometry">
            <mxPoint as="offset" />
          </mxGeometry>
        </mxCell>
        <mxCell id="2hq3gFtp2GpSwsrjaMzX-8" value="Check&lt;div&gt;validity&lt;/div&gt;" style="whiteSpace=wrap;html=1;verticalAlign=top;rounded=1;" parent="1" vertex="1">
          <mxGeometry x="530" y="70" width="120" height="60" as="geometry" />
        </mxCell>
        <mxCell id="2hq3gFtp2GpSwsrjaMzX-10" value="Save&lt;div&gt;Coupon&lt;/div&gt;&lt;div&gt;with satus&lt;/div&gt;" style="whiteSpace=wrap;html=1;verticalAlign=top;rounded=1;" parent="1" vertex="1">
          <mxGeometry x="710" y="70" width="120" height="60" as="geometry" />
        </mxCell>
        <mxCell id="2hq3gFtp2GpSwsrjaMzX-13" style="edgeStyle=orthogonalEdgeStyle;rounded=0;orthogonalLoop=1;jettySize=auto;html=1;exitX=0.5;exitY=1;exitDx=0;exitDy=0;entryX=0;entryY=0.5;entryDx=0;entryDy=0;" parent="1" target="I81Et_k_NmvjJubmhsC7-2" edge="1">
          <mxGeometry relative="1" as="geometry">
            <mxPoint x="747.5" y="130" as="sourcePoint" />
            <mxPoint x="32.5" y="-40" as="targetPoint" />
            <Array as="points">
              <mxPoint x="748" y="180" />
              <mxPoint x="33" y="180" />
              <mxPoint x="33" y="-40" />
            </Array>
          </mxGeometry>
        </mxCell>
        <mxCell id="2hq3gFtp2GpSwsrjaMzX-14" value="Response coupon status" style="edgeLabel;html=1;align=center;verticalAlign=middle;resizable=0;points=[];" parent="2hq3gFtp2GpSwsrjaMzX-13" vertex="1" connectable="0">
          <mxGeometry x="0.0088" y="3" relative="1" as="geometry">
            <mxPoint as="offset" />
          </mxGeometry>
        </mxCell>
        <mxCell id="2hq3gFtp2GpSwsrjaMzX-17" value="" style="edgeStyle=orthogonalEdgeStyle;rounded=0;orthogonalLoop=1;jettySize=auto;html=1;" parent="1" source="2hq3gFtp2GpSwsrjaMzX-15" target="2hq3gFtp2GpSwsrjaMzX-8" edge="1">
          <mxGeometry relative="1" as="geometry" />
        </mxCell>
        <mxCell id="2hq3gFtp2GpSwsrjaMzX-15" value="Apply&lt;div&gt;Security&lt;/div&gt;&lt;div&gt;Checks&lt;/div&gt;" style="whiteSpace=wrap;html=1;verticalAlign=top;rounded=1;" parent="1" vertex="1">
          <mxGeometry x="340" y="70" width="120" height="60" as="geometry" />
        </mxCell>
        <mxCell id="I81Et_k_NmvjJubmhsC7-1" value="&lt;font style=&quot;font-size: 21px;&quot;&gt;Describe: A Cashier scan a qrcode coupon&lt;/font&gt;" style="text;html=1;align=center;verticalAlign=middle;resizable=0;points=[];autosize=1;strokeColor=none;fillColor=none;" vertex="1" parent="1">
          <mxGeometry x="175" y="-320" width="420" height="40" as="geometry" />
        </mxCell>
        <mxCell id="I81Et_k_NmvjJubmhsC7-2" value="Webapp" style="shape=process;whiteSpace=wrap;html=1;backgroundOutline=1;verticalAlign=top;" vertex="1" parent="1">
          <mxGeometry x="55" y="-70" width="120" height="60" as="geometry" />
        </mxCell>
        <mxCell id="I81Et_k_NmvjJubmhsC7-7" style="edgeStyle=orthogonalEdgeStyle;rounded=0;orthogonalLoop=1;jettySize=auto;html=1;" edge="1" parent="1" source="I81Et_k_NmvjJubmhsC7-5" target="2hq3gFtp2GpSwsrjaMzX-10">
          <mxGeometry relative="1" as="geometry" />
        </mxCell>
        <mxCell id="I81Et_k_NmvjJubmhsC7-5" value="Lambda&lt;div&gt;Backend&lt;/div&gt;" style="shape=process;whiteSpace=wrap;html=1;backgroundOutline=1;verticalAlign=top;rounded=1;" vertex="1" parent="1">
          <mxGeometry x="530" y="-70" width="120" height="60" as="geometry" />
        </mxCell>
        <mxCell id="I81Et_k_NmvjJubmhsC7-10" style="edgeStyle=orthogonalEdgeStyle;rounded=0;orthogonalLoop=1;jettySize=auto;html=1;entryX=0.5;entryY=0;entryDx=0;entryDy=0;" edge="1" parent="1" source="I81Et_k_NmvjJubmhsC7-9" target="I81Et_k_NmvjJubmhsC7-2">
          <mxGeometry relative="1" as="geometry" />
        </mxCell>
        <mxCell id="I81Et_k_NmvjJubmhsC7-11" value="Show its qrcode" style="edgeLabel;html=1;align=center;verticalAlign=middle;resizable=0;points=[];" vertex="1" connectable="0" parent="I81Et_k_NmvjJubmhsC7-10">
          <mxGeometry x="0.0167" y="-7" relative="1" as="geometry">
            <mxPoint as="offset" />
          </mxGeometry>
        </mxCell>
        <mxCell id="I81Et_k_NmvjJubmhsC7-9" value="Shop&#39;s Customer" style="shape=umlActor;verticalLabelPosition=bottom;verticalAlign=top;html=1;outlineConnect=0;" vertex="1" parent="1">
          <mxGeometry x="100" y="-250" width="30" height="60" as="geometry" />
        </mxCell>
      </root>
    </mxGraphModel>
  </diagram>
</mxfile>
